<svg width="24" height="24" viewBox="0 0 24 24" fill="none" xmlns="http://www.w3.org/2000/svg">
<g clip-path="url(#clip0_431_92)">
<path d="M12 14.25C13.2426 14.25 14.25 13.2426 14.25 12C14.25 10.7574 13.2426 9.75 12 9.75C10.7574 9.75 9.75 10.7574 9.75 12C9.75 13.2426 10.7574 14.25 12 14.25Z" stroke="#59637A" stroke-width="1.5" stroke-linecap="round" stroke-linejoin="round"/>
<path d="M9.77972 11.6384C9.15627 11.3796 8.59335 10.9942 8.12661 10.5066C7.65987 10.0189 7.29949 9.43964 7.0683 8.80546C6.8371 8.17127 6.74013 7.49599 6.78352 6.82237C6.82691 6.14875 7.00972 5.49149 7.32037 4.8922C7.63102 4.29292 8.06274 3.76468 8.58818 3.34095C9.11363 2.91721 9.72134 2.60721 10.3728 2.43059C11.0243 2.25396 11.7054 2.21456 12.3729 2.31488C13.0404 2.41519 13.6799 2.65304 14.2507 3.01335L12.5472 9.81398" stroke="#59637A" stroke-width="1.5" stroke-linecap="round" stroke-linejoin="round"/>
<path d="M12.7973 14.1041C12.8864 14.7741 12.8353 15.4554 12.647 16.1046C12.4588 16.7538 12.1376 17.3567 11.7039 17.8752C11.2702 18.3936 10.7334 18.8162 10.1276 19.1161C9.52183 19.4159 8.86031 19.5866 8.18505 19.6171C7.5098 19.6476 6.83558 19.5374 6.20521 19.2934C5.57483 19.0495 5.00209 18.677 4.52334 18.1999C4.0446 17.7227 3.67032 17.1512 3.42428 16.5216C3.17823 15.892 3.0658 15.2182 3.09413 14.5428L9.83569 12.6172" stroke="#59637A" stroke-width="1.5" stroke-linecap="round" stroke-linejoin="round"/>
<path d="M13.4238 10.2576C13.9595 9.8454 14.575 9.54908 15.2313 9.38748C15.8876 9.22588 16.5704 9.20252 17.2362 9.31889C17.902 9.43525 18.5364 9.6888 19.0989 10.0634C19.6615 10.4381 20.1401 10.9256 20.5042 11.4951C20.8682 12.0645 21.1099 12.7035 21.2139 13.3713C21.3178 14.0392 21.2818 14.7214 21.108 15.3746C20.9342 16.0278 20.6265 16.6377 20.2044 17.1656C19.7822 17.6935 19.255 18.1278 18.656 18.441L13.6179 13.566" stroke="#59637A" stroke-width="1.5" stroke-linecap="round" stroke-linejoin="round"/>
</g>
<defs>
<clipPath id="clip0_431_92">
<rect width="24" height="24" fill="white"/>
</clipPath>
</defs>
</svg>
